<?xml version="1.0" encoding="utf-8"?>
<!-- Generator: Adobe Illustrator 16.2.0, SVG Export Plug-In . SVG Version: 6.00 Build 0)  -->
<!DOCTYPE svg PUBLIC "-//W3C//DTD SVG 1.1//EN" "http://www.w3.org/Graphics/SVG/1.1/DTD/svg11.dtd">
<svg version="1.1" id="Слой_1" xmlns="http://www.w3.org/2000/svg" xmlns:xlink="http://www.w3.org/1999/xlink" x="0px" y="0px"
	 width="723.738px" height="157.5px" viewBox="0 0 723.738 157.5" enable-background="new 0 0 723.738 157.5" xml:space="preserve">
<g>
	<path fill="#EE3324" d="M112.25,45v56c0,7.668-1.461,14.918-4.375,21.75c-2.918,6.836-6.961,12.836-12.125,18
		c-5.168,5.168-11.125,9.211-17.875,12.125c-6.75,2.918-14.043,4.375-21.875,4.375c-7.668,0-14.918-1.457-21.75-4.375
		c-6.836-2.914-12.793-6.957-17.875-12.125c-5.086-5.164-9.086-11.164-12-18C1.457,115.918,0,108.668,0,101V45h22.25v56
		c0,4.668,0.875,9.086,2.625,13.25c1.75,4.168,4.164,7.793,7.25,10.875c3.082,3.086,6.664,5.5,10.75,7.25
		C46.957,134.125,51.332,135,56,135c4.664,0,9.082-0.875,13.25-2.625c4.164-1.75,7.789-4.164,10.875-7.25
		c3.082-3.082,5.5-6.707,7.25-10.875C89.125,110.086,90,105.668,90,101V45H112.25z"/>
</g>
<g>
	<path fill="#020202" d="M123.125,79.375c2.914-6.75,6.914-12.664,12-17.75c5.082-5.082,11.039-9.082,17.875-12
		c6.832-2.914,14.082-4.375,21.75-4.375c7.832,0,15.125,1.461,21.875,4.375c6.75,2.918,12.707,6.918,17.875,12
		c5.164,5.086,9.207,11,12.125,17.75c2.914,6.75,4.375,14.043,4.375,21.875v56.25h-22.25v-56.25c0-4.664-0.875-9.039-2.625-13.125
		c-1.75-4.082-4.168-7.664-7.25-10.75c-3.086-3.082-6.711-5.5-10.875-7.25c-4.168-1.75-8.586-2.625-13.25-2.625
		c-4.668,0-9.043,0.875-13.125,2.625c-4.086,1.75-7.668,4.168-10.75,7.25c-3.086,3.086-5.5,6.668-7.25,10.75
		c-1.75,4.086-2.625,8.461-2.625,13.125v56.25h-22.25v-56.25C118.75,93.418,120.207,86.125,123.125,79.375z"/>
	<path fill="#020202" d="M260.747,45v112.25h-22V45H260.747z"/>
	<path fill="#020202" d="M380.496,0v101c0,7.668-1.461,14.918-4.375,21.75c-2.918,6.836-6.918,12.836-12,18
		c-5.086,5.168-11.043,9.211-17.875,12.125c-6.836,2.918-14.086,4.375-21.75,4.375c-7.668,0-14.918-1.457-21.75-4.375
		c-6.836-2.914-12.836-6.957-18-12.125c-5.168-5.164-9.211-11.164-12.125-18c-2.918-6.832-4.375-14.082-4.375-21.75
		c0-7.832,1.457-15.125,4.375-21.875c2.914-6.75,6.957-12.664,12.125-17.75c5.164-5.082,11.164-9.082,18-12
		c6.832-2.914,14.082-4.375,21.75-4.375h33.75V0H380.496z M324.496,135c4.664,0,9.039-0.875,13.125-2.625
		c4.082-1.75,7.664-4.164,10.75-7.25c3.082-3.082,5.5-6.707,7.25-10.875c1.75-4.164,2.625-8.582,2.625-13.25V67.25h-33.75
		c-4.668,0-9.086,0.875-13.25,2.625c-4.168,1.75-7.793,4.168-10.875,7.25c-3.086,3.086-5.5,6.668-7.25,10.75
		c-1.75,4.086-2.625,8.461-2.625,13.125c0,4.668,0.875,9.086,2.625,13.25c1.75,4.168,4.164,7.793,7.25,10.875
		c3.082,3.086,6.707,5.5,10.875,7.25C315.41,134.125,319.828,135,324.496,135z"/>
	<path fill="#020202" d="M455.743,45v22.25h-11.25c-4.668,0-9.043,0.875-13.125,2.625c-4.086,1.75-7.668,4.168-10.75,7.25
		c-3.086,3.086-5.5,6.668-7.25,10.75c-1.75,4.086-2.625,8.461-2.625,13.125v56.25h-22.5V101c0-7.832,1.457-15.125,4.375-21.875
		c2.914-6.75,6.957-12.664,12.125-17.75c5.164-5.082,11.164-9.082,18-12c6.832-2.914,14.082-4.375,21.75-4.375H455.743z"/>
	<path fill="#020202" d="M518.24,45c7.832,0,15.125,1.461,21.875,4.375c6.75,2.918,12.664,6.918,17.75,12
		c5.082,5.086,9.082,11,12,17.75c2.914,6.75,4.375,14.043,4.375,21.875v56.25h-56c-7.668,0-14.918-1.457-21.75-4.375
		c-6.836-2.914-12.836-6.957-18-12.125c-5.168-5.164-9.211-11.164-12.125-18c-2.918-6.832-4.375-14.082-4.375-21.75
		c0-7.832,1.457-15.125,4.375-21.875c2.914-6.75,6.957-12.664,12.125-17.75c5.164-5.082,11.164-9.082,18-12
		C503.322,46.461,510.572,45,518.24,45z M551.99,135v-34c0-4.664-0.875-9.039-2.625-13.125c-1.75-4.082-4.168-7.664-7.25-10.75
		c-3.086-3.082-6.668-5.5-10.75-7.25c-4.086-1.75-8.461-2.625-13.125-2.625c-4.668,0-9.086,0.875-13.25,2.625
		c-4.168,1.75-7.793,4.168-10.875,7.25c-3.086,3.086-5.5,6.668-7.25,10.75c-1.75,4.086-2.625,8.461-2.625,13.125
		c0,4.668,0.875,9.086,2.625,13.25c1.75,4.168,4.164,7.793,7.25,10.875c3.082,3.086,6.707,5.5,10.875,7.25
		c4.164,1.75,8.582,2.625,13.25,2.625H551.99z"/>
	<path fill="#020202" d="M623.99,24.875c-4.168,1.75-7.793,4.168-10.875,7.25c-3.086,3.086-5.5,6.668-7.25,10.75
		c-1.75,4.086-2.625,8.461-2.625,13.125v11.5h45v22.25h-45v67.5h-22.25V56c0-7.832,1.457-15.125,4.375-21.875
		c2.914-6.75,6.957-12.664,12.125-17.75c5.164-5.082,11.164-9.082,18-12C622.322,1.461,629.572,0,637.24,0h11v22.25h-11
		C632.572,22.25,628.154,23.125,623.99,24.875z"/>
	<path fill="#020202" d="M723.738,135v22.25h-11c-7.668,0-14.918-1.457-21.75-4.375c-6.836-2.914-12.836-6.957-18-12.125
		c-5.168-5.164-9.211-11.164-12.125-18c-2.918-6.832-4.375-14.082-4.375-21.75V0h22.25v67.5h45v22.25h-45V101
		c0,4.668,0.875,9.086,2.625,13.25c1.75,4.168,4.164,7.793,7.25,10.875c3.082,3.086,6.707,5.5,10.875,7.25
		c4.164,1.75,8.582,2.625,13.25,2.625H723.738z"/>
</g>
</svg>
